<?xml version="1.0" standalone="no"?>
<!DOCTYPE svg PUBLIC "-//W3C//DTD SVG 20010904//EN"
 "http://www.w3.org/TR/2001/REC-SVG-20010904/DTD/svg10.dtd">
<svg version="1.0" xmlns="http://www.w3.org/2000/svg"
 width="512.000000pt" height="512.000000pt" viewBox="0 0 512.000000 512.000000"
 preserveAspectRatio="xMidYMid meet">
<metadata>
Created by potrace 1.14, written by Peter Selinger 2001-2017
</metadata>
<g transform="translate(0.000000,512.000000) scale(0.100000,-0.100000)"
fill="#000000" stroke="none">
<path d="M2365 5010 c-4 -6 -21 -11 -39 -10 -17 1 -33 1 -36 0 -15 -5 -50 -10
-92 -12 -27 -2 -48 -5 -48 -8 0 -3 -15 -6 -32 -7 -44 -1 -61 -6 -70 -18 -5 -6
-8 -4 -8 5 0 10 -3 11 -8 3 -6 -9 -31 -17 -92 -27 -8 -1 -33 -9 -55 -16 -22
-8 -42 -15 -45 -15 -28 -7 -96 -28 -109 -35 -18 -9 -50 -22 -66 -25 -6 -2 -31
-11 -55 -22 -69 -31 -84 -36 -93 -34 -4 0 -10 -5 -13 -13 -3 -8 -12 -12 -20
-9 -8 3 -14 1 -14 -4 0 -5 -17 -15 -37 -22 -21 -8 -43 -20 -51 -27 -7 -8 -20
-14 -28 -14 -8 0 -14 -5 -14 -11 0 -5 -4 -7 -10 -4 -5 3 -10 1 -10 -5 0 -7 -7
-9 -16 -6 -8 3 -12 2 -9 -4 3 -6 -2 -13 -11 -17 -10 -3 -47 -26 -82 -49 -36
-24 -70 -40 -75 -37 -6 3 -7 1 -3 -5 4 -6 -4 -16 -16 -23 -13 -7 -32 -22 -43
-34 -11 -11 -28 -24 -38 -28 -9 -3 -17 -11 -17 -17 0 -5 -5 -10 -11 -10 -7 0
-20 -10 -30 -22 -11 -11 -19 -19 -19 -16 0 3 -46 -40 -103 -96 -56 -55 -101
-105 -98 -110 2 -5 -3 -7 -12 -3 -9 3 -16 3 -16 -1 3 -20 -2 -33 -11 -27 -5 3
-10 0 -10 -8 0 -8 -7 -18 -16 -21 -8 -3 -12 -10 -9 -16 6 -9 -8 -14 -28 -11
-5 1 -6 -3 -3 -8 4 -5 -20 -45 -51 -88 -32 -43 -63 -87 -70 -98 -6 -11 -16
-19 -23 -17 -6 1 -9 -2 -6 -7 4 -5 -1 -16 -10 -25 -8 -9 -13 -20 -9 -25 3 -6
0 -13 -7 -18 -7 -4 -24 -29 -37 -55 -13 -27 -28 -48 -33 -48 -5 0 -7 -4 -3 -9
3 -5 -3 -17 -12 -27 -10 -10 -17 -19 -15 -21 1 -2 -9 -26 -23 -55 -14 -28 -23
-54 -20 -56 3 -3 -1 -12 -9 -21 -8 -9 -16 -20 -18 -26 -2 -5 -7 -9 -11 -7 -5
1 -6 -2 -2 -8 4 -6 1 -18 -7 -27 -11 -14 -11 -16 2 -8 11 6 10 3 -2 -12 -10
-11 -18 -29 -18 -41 0 -11 -5 -24 -10 -27 -6 -4 -8 -10 -5 -15 3 -5 1 -11 -5
-15 -6 -4 -8 -11 -5 -16 4 -5 1 -9 -5 -9 -6 0 -9 -4 -6 -8 7 -12 -19 -83 -28
-75 -4 4 -4 0 -1 -9 4 -10 1 -34 -6 -55 -7 -21 -14 -46 -15 -55 -1 -10 -3 -21
-4 -25 -1 -5 -2 -11 -1 -15 0 -5 -4 -8 -10 -8 -8 0 -8 -5 1 -15 7 -8 8 -15 3
-15 -6 0 -10 -12 -9 -27 0 -18 -4 -27 -13 -25 -8 1 -10 -2 -5 -10 13 -21 11
-47 -3 -53 -9 -3 -11 -10 -7 -17 10 -16 5 -69 -7 -85 -7 -7 -6 -14 1 -18 6 -3
7 -13 2 -23 -4 -9 -8 -47 -7 -84 0 -38 -4 -68 -8 -68 -5 0 -5 -5 -1 -11 9 -16
9 -143 -1 -159 -5 -8 -4 -11 2 -7 6 4 9 -14 8 -46 -1 -29 3 -58 8 -64 6 -9 5
-13 -4 -13 -9 0 -10 -3 -4 -8 6 -4 11 -20 13 -37 2 -23 0 -26 -8 -15 -5 8 -10
10 -10 4 0 -6 7 -17 15 -24 18 -15 20 -34 3 -24 -10 5 -10 4 -1 -6 6 -7 9 -19
6 -26 -3 -8 0 -14 7 -14 6 0 8 -5 3 -12 -11 -18 -13 -39 -3 -33 12 8 18 -43 6
-55 -8 -8 -7 -11 3 -8 9 2 15 -8 18 -32 2 -19 7 -42 10 -50 3 -8 8 -25 10 -37
2 -12 10 -41 18 -64 8 -22 12 -46 9 -51 -4 -6 -3 -13 2 -17 22 -16 34 -52 24
-71 -9 -17 -8 -19 7 -13 10 3 15 3 11 -2 -4 -4 1 -24 12 -45 11 -21 16 -40 13
-44 -4 -3 0 -6 7 -6 7 0 10 -3 7 -7 -4 -3 0 -17 8 -30 14 -21 12 -27 -7 -24
-9 1 -4 -27 7 -36 4 -4 5 -3 1 4 -3 6 -2 14 3 18 6 3 15 -4 21 -15 6 -11 7
-20 3 -20 -4 0 -3 -4 2 -8 15 -10 35 -49 35 -67 0 -8 4 -15 8 -15 5 0 14 -16
22 -35 8 -19 18 -35 23 -35 5 0 7 -6 4 -14 -3 -8 1 -17 9 -20 8 -3 14 -12 14
-21 0 -8 5 -15 12 -15 6 0 9 -3 5 -6 -3 -3 1 -13 9 -22 8 -10 14 -21 13 -25 0
-5 9 -17 21 -27 12 -10 21 -22 21 -27 0 -4 9 -19 20 -31 11 -13 18 -30 15 -38
-3 -7 0 -16 6 -20 7 -4 8 -3 4 4 -4 7 -2 12 3 12 6 0 11 -5 11 -11 0 -5 13
-24 30 -42 16 -18 30 -38 30 -45 0 -7 5 -10 12 -6 8 5 9 0 5 -15 -4 -18 -3
-20 9 -10 11 9 14 8 14 -5 0 -20 23 -46 41 -46 7 0 10 -3 6 -6 -3 -4 1 -13 9
-21 8 -8 11 -19 8 -24 -3 -6 2 -9 12 -7 14 2 19 -3 18 -19 0 -19 2 -21 15 -10
12 10 14 9 8 -5 -4 -11 -2 -15 6 -12 16 6 60 -43 52 -56 -3 -6 0 -7 8 -4 17 6
41 -21 34 -39 -3 -8 3 -14 16 -15 17 -1 19 1 7 8 -8 5 -10 10 -4 10 14 0 44
-33 44 -49 0 -7 4 -9 10 -6 6 3 10 0 10 -8 0 -8 8 -21 18 -28 14 -11 15 -11 5
1 -27 30 -12 31 16 1 16 -17 34 -31 40 -31 5 0 14 -7 19 -16 5 -9 12 -15 15
-15 19 3 21 0 7 -10 -12 -9 -11 -10 8 -6 12 3 20 2 18 -2 -3 -4 9 -13 26 -20
20 -9 28 -19 25 -30 -3 -11 2 -17 14 -17 10 0 15 5 11 11 -4 6 0 4 8 -5 9 -8
22 -16 30 -18 8 -2 22 -10 30 -19 8 -9 10 -13 3 -9 -12 7 -12 -18 1 -31 4 -4
6 -1 4 7 -2 9 4 15 17 15 12 0 20 -6 19 -16 -1 -9 5 -16 12 -16 7 0 11 4 8 9
-3 4 11 0 30 -9 20 -10 36 -25 36 -33 0 -13 1 -13 10 0 6 10 10 11 10 3 0 -7
3 -12 8 -11 4 1 22 -6 40 -15 17 -10 32 -14 32 -10 1 5 9 -2 19 -14 10 -12 21
-20 23 -17 8 7 58 -18 53 -27 -3 -4 3 -5 13 -2 11 2 26 -3 35 -11 10 -10 17
-12 19 -5 3 8 10 6 21 -5 9 -10 26 -18 37 -19 11 -1 20 -5 20 -9 0 -4 9 -5 20
-3 11 2 26 -2 34 -10 7 -8 16 -11 20 -8 3 3 9 -2 12 -11 5 -14 9 -15 15 -5 6
10 13 11 31 1 27 -13 71 -24 110 -26 14 0 24 -5 21 -10 -3 -5 6 -7 21 -4 18 4
26 2 23 -6 -3 -7 13 -11 47 -10 28 0 56 -2 61 -6 6 -4 24 -8 40 -9 83 -5 141
-24 129 -43 -5 -7 -3 -8 5 -4 9 6 8 13 -6 28 -18 21 -18 21 5 9 12 -7 27 -9
33 -5 6 4 15 0 20 -7 8 -12 11 -12 19 1 8 13 11 13 22 1 11 -11 11 -13 -1 -6
-9 5 -12 4 -7 -3 11 -17 26 -14 26 5 0 14 3 14 22 -3 12 -10 18 -14 15 -7 -5
8 12 11 63 9 38 -1 71 1 73 4 2 3 2 -1 0 -9 -3 -11 -1 -11 12 -1 8 7 21 10 30
7 8 -4 17 -2 20 2 5 10 56 8 73 -3 6 -3 14 -1 18 5 5 8 3 9 -6 4 -9 -5 -11 -4
-6 4 6 9 11 9 22 0 7 -6 12 -15 9 -19 -3 -4 3 -14 13 -21 15 -12 16 -12 5 2
-18 22 12 47 55 45 17 0 32 4 32 9 0 6 4 4 9 -3 6 -10 10 -10 21 3 11 13 15
13 22 3 5 -8 11 -9 16 -3 4 6 18 11 32 13 45 5 55 7 68 15 6 5 16 6 20 3 4 -2
14 -1 22 4 9 5 19 5 27 -2 8 -6 16 -8 20 -4 3 3 1 6 -6 6 -7 0 -9 5 -6 10 5 8
12 7 23 -2 12 -10 14 -10 8 0 -4 6 -2 12 3 12 16 0 23 2 59 17 17 7 32 10 32
7 0 -4 8 0 17 7 11 10 14 10 9 2 -4 -7 -3 -13 2 -13 6 0 13 7 16 16 4 10 13
13 26 9 13 -4 20 -2 20 7 0 11 2 11 9 0 6 -10 10 -8 14 9 5 19 8 20 21 9 9 -7
16 -8 16 -3 0 14 57 32 68 21 6 -6 12 -5 17 3 5 8 4 10 -3 5 -7 -4 -12 -3 -12
3 0 9 39 20 86 24 11 0 21 7 21 14 0 10 -4 10 -11 3 -5 -5 -17 -10 -25 -10 -9
0 -3 7 13 15 16 9 31 13 34 11 2 -3 11 2 19 10 12 12 18 12 31 2 12 -10 14
-10 8 0 -5 8 -1 12 13 12 11 0 23 4 26 10 4 6 -1 7 -12 4 -10 -3 2 6 26 20 51
31 48 30 54 9 3 -10 5 -5 6 12 1 22 4 26 10 15 6 -8 7 -18 5 -22 -3 -4 0 -8 6
-8 6 0 8 10 5 23 -5 18 -1 26 20 35 23 11 27 9 36 -11 9 -21 9 -20 4 4 -6 35
18 58 35 32 10 -16 10 -16 5 4 -8 28 22 46 50 31 16 -9 18 -8 8 2 -9 10 -6 18
14 36 14 13 32 24 40 24 8 0 11 5 7 12 -4 7 -3 8 4 4 7 -4 20 -2 29 4 17 11
17 11 0 6 -11 -3 -15 -2 -12 4 3 6 12 10 20 10 8 0 19 8 24 17 9 16 12 16 21
3 9 -12 10 -9 4 10 -6 22 -5 23 9 11 9 -7 14 -18 10 -24 -3 -6 -1 -7 6 -3 9 6
9 11 0 22 -9 11 -1 23 38 61 27 27 53 49 57 50 4 1 20 18 36 38 l28 36 16 -23
c9 -12 16 -18 16 -12 0 5 -5 15 -12 22 -15 15 4 38 46 58 17 8 23 12 14 9 -10
-2 -18 0 -18 5 0 6 5 10 11 10 5 0 7 6 3 13 -6 9 -4 9 7 0 7 -7 18 -13 23 -13
6 0 4 5 -4 10 -12 7 -11 13 10 34 13 15 31 26 39 27 11 0 12 2 4 6 -7 2 -13 9
-13 14 0 4 7 5 17 2 11 -4 14 -3 9 5 -4 7 -2 12 4 12 6 0 8 5 5 10 -3 6 -1 10
5 10 6 0 9 4 5 9 -3 5 4 12 15 16 11 4 18 11 15 16 -4 5 -3 9 2 9 4 0 16 14
25 31 10 17 22 28 28 24 5 -3 7 0 4 8 -3 8 0 18 5 22 6 3 9 11 6 16 -3 5 1 6
10 3 11 -4 14 -2 10 9 -4 8 1 17 10 21 9 3 14 10 11 15 -3 5 0 11 8 14 8 3 17
19 21 36 4 17 11 31 16 31 6 0 7 -5 3 -12 -4 -6 -3 -8 4 -5 5 4 8 16 5 27 -3
12 0 20 6 20 7 0 10 -4 6 -9 -3 -5 -1 -12 4 -15 10 -7 9 13 -1 30 -4 6 4 27
18 47 14 20 21 37 17 37 -4 0 -1 4 7 10 9 6 20 5 30 -3 13 -11 13 -10 1 5 -7
10 -17 15 -22 12 -5 -3 -9 0 -9 5 0 6 5 11 11 11 5 0 8 4 5 9 -3 5 1 12 10 15
8 3 12 10 9 16 -3 5 -1 10 5 10 6 0 8 5 4 12 -5 8 -1 9 12 4 14 -5 16 -4 8 4
-15 15 -6 50 12 50 8 0 14 5 14 11 0 5 -4 7 -10 4 -5 -3 -10 -2 -10 3 0 17 13
21 34 11 19 -9 20 -9 3 4 -22 18 -19 38 8 55 16 10 16 12 3 8 -10 -3 -18 -1
-18 4 0 6 4 10 9 10 7 0 21 45 25 82 1 3 4 10 9 14 4 4 7 17 7 29 0 12 3 25 7
29 4 3 8 16 10 28 2 12 7 26 12 32 5 6 7 19 6 29 -2 9 0 17 4 17 4 0 7 13 6
30 -1 16 2 27 6 25 4 -3 10 2 13 11 5 12 10 14 19 5 10 -8 14 -7 14 4 0 8 -4
12 -8 10 -9 -6 -34 24 -26 32 4 3 13 1 20 -5 10 -9 14 -8 14 3 0 8 -4 12 -9 9
-4 -3 -8 0 -8 6 0 6 -4 9 -8 6 -10 -6 -9 25 2 42 4 6 4 17 1 22 -3 6 -3 10 2
10 4 0 8 20 8 45 0 25 4 44 10 43 6 -2 9 -11 9 -21 -1 -10 1 -15 5 -12 3 4 6
10 6 13 0 4 4 14 9 22 5 8 6 12 1 8 -4 -4 -14 -3 -20 2 -9 7 -11 31 -8 78 6
69 17 97 36 85 6 -3 7 -1 3 6 -6 9 -11 9 -21 1 -11 -9 -13 -3 -11 32 1 24 6
50 11 57 5 8 4 12 -1 8 -5 -3 -10 12 -10 34 -1 25 3 36 10 32 6 -4 5 1 -3 10
-7 9 -11 30 -9 47 3 17 0 30 -6 30 -6 0 -4 5 4 10 13 8 13 10 1 10 -11 0 -9 4
4 14 11 8 24 12 29 9 5 -4 6 -1 1 6 -5 9 -10 10 -18 2 -15 -15 -24 -14 -24 4
0 8 5 11 11 8 6 -4 5 0 -1 9 -7 8 -10 18 -6 21 3 4 2 7 -3 7 -5 0 -9 13 -10
30 -1 16 2 27 6 25 4 -2 7 2 7 9 0 9 -7 12 -16 9 -11 -4 -9 0 4 10 18 15 19
16 2 17 -10 0 -15 5 -12 10 4 6 3 16 -2 23 -11 14 -11 27 1 46 6 10 5 12 -2 7
-19 -11 -14 5 6 20 16 12 16 12 -3 11 -15 -2 -19 3 -18 21 2 12 -1 22 -6 22
-11 0 -9 19 3 38 4 7 5 16 2 19 -3 4 -6 1 -6 -5 0 -7 -5 -12 -11 -12 -5 0 -7
5 -4 10 4 6 1 18 -7 27 -11 15 -11 16 7 10 19 -7 19 -6 2 7 -10 7 -19 28 -20
45 -1 17 -5 31 -9 31 -5 0 -8 11 -8 25 0 14 -5 25 -12 25 -6 0 -9 3 -5 6 3 4
0 22 -8 41 -8 19 -12 39 -9 44 3 5 0 9 -6 9 -6 0 -8 5 -5 10 3 6 1 10 -4 10
-6 0 -11 11 -11 24 0 14 -5 28 -11 32 -6 3 -9 15 -6 25 3 10 0 17 -7 16 -6 -1
-10 4 -8 11 1 6 -4 12 -10 12 -7 0 -4 8 7 16 19 16 19 16 -5 9 -22 -7 -23 -6
-11 9 8 9 11 19 7 23 -3 3 -6 1 -6 -5 0 -7 -5 -12 -11 -12 -5 0 -8 4 -4 9 3 5
1 12 -5 16 -5 3 -10 15 -10 26 0 11 -4 18 -8 15 -4 -2 -9 4 -9 15 -1 10 3 19
8 19 6 0 7 5 3 11 -5 8 -9 7 -14 -1 -9 -14 -40 37 -40 65 0 9 -4 14 -9 11 -5
-3 -12 1 -15 10 -3 8 -2 12 3 9 5 -3 13 0 17 6 4 7 3 9 -4 5 -13 -8 -52 31
-52 51 0 8 -5 11 -12 7 -6 -4 -8 -3 -5 4 9 14 -3 43 -14 36 -5 -3 -9 2 -9 10
0 9 -5 16 -11 16 -5 0 -7 5 -4 10 3 6 -1 13 -9 16 -9 3 -16 12 -16 20 0 8 -5
14 -11 14 -6 0 -9 9 -6 20 3 11 1 17 -4 14 -5 -3 -16 1 -23 9 -11 11 -12 17
-3 27 9 10 9 11 0 6 -6 -3 -18 1 -25 9 -7 9 -21 24 -30 33 -10 9 -18 22 -18
29 0 7 -8 13 -17 13 -15 0 -16 2 -3 10 13 9 13 10 0 11 -8 1 -19 0 -25 -1 -5
-1 -7 2 -3 6 4 4 -6 20 -22 36 -16 15 -28 28 -25 28 2 0 -7 11 -21 25 -14 14
-29 25 -34 25 -6 0 -10 4 -10 9 0 9 -57 71 -66 71 -3 0 -18 14 -34 30 -16 17
-34 30 -41 30 -6 0 -9 7 -6 15 4 8 1 17 -5 21 -7 4 -8 3 -4 -4 15 -24 -16 -6
-59 36 -8 6 -18 12 -24 12 -5 0 -14 6 -18 13 -4 7 -34 30 -66 51 -31 20 -55
41 -52 47 3 5 0 6 -8 3 -8 -3 -21 2 -30 10 -9 9 -20 16 -26 16 -6 0 -11 5 -11
10 0 6 -8 10 -17 10 -27 1 -58 26 -41 34 7 3 4 4 -8 1 -12 -3 -26 1 -33 9 -7
8 -24 17 -38 21 -15 3 -33 14 -41 23 -9 11 -11 12 -6 2 6 -13 5 -13 -12 1 -22
18 -76 43 -86 41 -5 -1 -8 3 -8 9 0 5 -4 8 -9 4 -5 -3 -12 -1 -16 5 -3 5 -15
10 -26 10 -10 0 -19 5 -19 11 0 5 -4 8 -9 4 -5 -3 -12 -1 -16 5 -4 6 -11 8
-16 5 -5 -4 -9 -2 -9 4 0 6 -6 8 -14 5 -8 -3 -17 0 -21 5 -3 6 -11 9 -16 6 -5
-4 -9 -2 -9 2 0 5 -12 10 -27 11 -15 1 -29 5 -32 10 -3 4 -10 7 -16 8 -25 2
-101 29 -107 39 -5 6 -8 5 -8 -4 0 -10 -3 -11 -13 -2 -8 6 -17 7 -21 3 -4 -4
-14 2 -22 12 -14 20 -14 20 -15 0 0 -18 -1 -18 -9 1 -5 11 -9 14 -9 7 -1 -8
-6 -10 -13 -5 -15 8 -29 12 -75 16 -18 2 -35 6 -39 9 -3 4 -12 4 -20 1 -8 -3
-21 0 -29 7 -8 7 -15 9 -15 5 0 -4 -8 -1 -17 6 -12 10 -15 10 -9 1 6 -10 0
-11 -25 -7 -19 3 -35 8 -38 10 -2 2 -12 0 -22 -6 -11 -5 -19 -6 -19 -1 0 5
-15 9 -32 10 -68 3 -284 2 -303 -2 -11 -2 -25 1 -32 6 -7 6 -14 5 -18 -2z
m2595 -2924 c0 -3 -4 -8 -10 -11 -5 -3 -10 -1 -10 4 0 6 5 11 10 11 6 0 10 -2
10 -4z"/>
<path d="M4275 4360 c-3 -5 -1 -10 4 -10 6 0 11 5 11 10 0 6 -2 10 -4 10 -3 0
-8 -4 -11 -10z"/>
<path d="M4380 4286 c0 -2 8 -10 18 -17 15 -13 16 -12 3 4 -13 16 -21 21 -21
13z"/>
<path d="M4467 4119 c7 -7 15 -10 18 -7 3 3 -2 9 -12 12 -14 6 -15 5 -6 -5z"/>
<path d="M4895 3389 c-4 -6 -5 -12 -2 -15 2 -3 7 2 10 11 7 17 1 20 -8 4z"/>
<path d="M4934 3298 c-4 -7 -3 -10 1 -5 5 4 18 -1 29 -10 21 -18 21 -18 2 5
-22 26 -23 26 -32 10z"/>
<path d="M4966 2982 c-3 -5 1 -9 9 -9 8 0 15 4 15 9 0 4 -4 8 -9 8 -6 0 -12
-4 -15 -8z"/>
<path d="M4993 2855 c0 -8 4 -12 9 -9 5 3 6 10 3 15 -9 13 -12 11 -12 -6z"/>
<path d="M5013 2713 c0 -9 4 -10 14 -2 7 6 13 12 13 14 0 1 -6 2 -13 2 -8 0
-14 -6 -14 -14z"/>
<path d="M5053 2572 c0 -12 5 -22 9 -22 11 0 10 12 -2 30 -7 12 -9 10 -7 -8z"/>
<path d="M5013 2435 c0 -8 4 -12 9 -9 4 3 8 9 8 15 0 5 -4 9 -8 9 -5 0 -9 -7
-9 -15z"/>
<path d="M5070 2436 c0 -2 8 -10 18 -17 15 -13 16 -12 3 4 -13 16 -21 21 -21
13z"/>
<path d="M5013 2393 c0 -9 4 -10 14 -2 7 6 13 12 13 14 0 1 -6 2 -13 2 -8 0
-14 -6 -14 -14z"/>
<path d="M5033 2265 c0 -8 4 -12 9 -9 5 3 6 10 3 15 -9 13 -12 11 -12 -6z"/>
<path d="M4993 2231 c-1 -11 6 -26 15 -33 15 -11 15 -11 4 3 -7 9 -10 24 -6
33 3 9 2 16 -3 16 -5 0 -9 -9 -10 -19z"/>
<path d="M4966 2159 c4 -8 30 -6 38 2 3 3 -5 5 -19 5 -13 0 -22 -3 -19 -7z"/>
<path d="M5006 2142 c-3 -5 1 -9 9 -9 8 0 12 4 9 9 -3 4 -7 8 -9 8 -2 0 -6 -4
-9 -8z"/>
<path d="M137 2055 c-4 -8 -3 -16 1 -19 4 -3 9 4 9 15 2 23 -3 25 -10 4z"/>
<path d="M5014 2058 c-4 -7 -4 -10 1 -6 4 4 15 2 24 -5 14 -11 14 -10 2 6 -16
20 -18 21 -27 5z"/>
<path d="M4960 2040 c-12 -7 -10 -9 7 -7 12 0 19 5 17 9 -6 10 -6 10 -24 -2z"/>
<path d="M4920 1926 c0 -2 8 -10 18 -17 15 -13 16 -12 3 4 -13 16 -21 21 -21
13z"/>
<path d="M4966 1902 c-3 -5 1 -9 9 -9 8 0 12 4 9 9 -3 4 -7 8 -9 8 -2 0 -6 -4
-9 -8z"/>
<path d="M4908 1883 c7 -3 16 -2 19 1 4 3 -2 6 -13 5 -11 0 -14 -3 -6 -6z"/>
<path d="M4890 1810 c-9 -6 -10 -10 -3 -10 6 0 15 5 18 10 8 12 4 12 -15 0z"/>
<path d="M4876 1782 c-3 -5 1 -9 9 -9 8 0 12 4 9 9 -3 4 -7 8 -9 8 -2 0 -6 -4
-9 -8z"/>
<path d="M4855 1699 c-4 -6 -5 -12 -2 -15 2 -3 7 2 10 11 7 17 1 20 -8 4z"/>
<path d="M4870 1678 c0 -4 4 -8 9 -8 6 0 12 4 15 8 3 5 -1 9 -9 9 -8 0 -15 -4
-15 -9z"/>
<path d="M253 1665 c0 -8 4 -12 9 -9 5 3 6 10 3 15 -9 13 -12 11 -12 -6z"/>
<path d="M4831 1587 c-13 -21 -12 -21 5 -5 10 10 16 20 13 22 -3 3 -11 -5 -18
-17z"/>
<path d="M4865 1599 c-3 -4 2 -6 10 -5 21 3 28 13 10 13 -9 0 -18 -4 -20 -8z"/>
<path d="M4795 1543 c3 -3 -3 -12 -13 -20 -16 -12 -15 -13 3 -6 18 6 19 5 5
-13 -14 -17 -14 -18 2 -6 16 13 19 36 5 47 -4 3 -5 2 -2 -2z"/>
<path d="M4830 1521 c0 -6 4 -13 10 -16 6 -3 7 1 4 9 -7 18 -14 21 -14 7z"/>
<path d="M335 1480 c-3 -5 -1 -10 4 -10 6 0 11 5 11 10 0 6 -2 10 -4 10 -3 0
-8 -4 -11 -10z"/>
<path d="M4774 1440 c0 -13 4 -16 10 -10 7 7 7 13 0 20 -6 6 -10 3 -10 -10z"/>
<path d="M4730 1441 c0 -6 4 -13 10 -16 6 -3 7 1 4 9 -7 18 -14 21 -14 7z"/>
<path d="M4736 1393 c-6 -14 -5 -15 5 -6 7 7 10 15 7 18 -3 3 -9 -2 -12 -12z"/>
<path d="M4750 1360 c0 -5 5 -10 11 -10 5 0 7 5 4 10 -3 6 -8 10 -11 10 -2 0
-4 -4 -4 -10z"/>
<path d="M4676 1298 c3 -4 1 -8 -4 -8 -6 0 -13 -7 -16 -16 -5 -13 -4 -14 7 -6
8 7 16 11 18 9 2 -1 3 0 2 2 -2 2 2 9 7 16 7 8 5 12 -5 12 -8 0 -12 -4 -9 -9z"/>
<path d="M455 1260 c3 -5 8 -10 11 -10 2 0 4 5 4 10 0 6 -5 10 -11 10 -5 0 -7
-4 -4 -10z"/>
<path d="M4715 1249 c-4 -6 -5 -12 -2 -15 2 -3 7 2 10 11 7 17 1 20 -8 4z"/>
<path d="M4630 1241 c0 -6 4 -12 8 -15 5 -3 9 1 9 9 0 8 -4 15 -9 15 -4 0 -8
-4 -8 -9z"/>
<path d="M4610 1210 c-9 -6 -10 -10 -3 -10 6 0 15 5 18 10 8 12 4 12 -15 0z"/>
<path d="M4639 1208 c-5 -18 -6 -38 -1 -34 7 8 12 36 6 36 -2 0 -4 -1 -5 -2z"/>
<path d="M4557 1149 c7 -7 15 -10 18 -7 3 3 -2 9 -12 12 -14 6 -15 5 -6 -5z"/>
<path d="M4579 1113 c-13 -16 -12 -17 4 -4 9 7 17 15 17 17 0 8 -8 3 -21 -13z"/>
<path d="M4615 1120 c-3 -5 -1 -10 4 -10 6 0 11 5 11 10 0 6 -2 10 -4 10 -3 0
-8 -4 -11 -10z"/>
<path d="M4504 1064 c-18 -14 -18 -15 4 -4 12 6 22 13 22 15 0 8 -5 6 -26 -11z"/>
<path d="M4480 1036 c0 -2 7 -7 16 -10 8 -3 12 -2 9 4 -6 10 -25 14 -25 6z"/>
<path d="M4470 1016 c0 -3 9 -10 20 -16 11 -6 20 -8 20 -6 0 3 -9 10 -20 16
-11 6 -20 8 -20 6z"/>
<path d="M4468 983 c6 -2 9 -10 6 -15 -4 -7 -2 -8 5 -4 13 9 5 26 -12 25 -9 0
-8 -2 1 -6z"/>
<path d="M635 961 c-3 -5 -2 -12 3 -15 5 -3 9 1 9 9 0 17 -3 19 -12 6z"/>
<path d="M4409 923 c-13 -16 -12 -17 4 -4 16 13 21 21 13 21 -2 0 -10 -8 -17
-17z"/>
<path d="M4454 915 c0 -13 3 -22 7 -19 8 4 6 30 -2 38 -3 3 -5 -5 -5 -19z"/>
<path d="M4374 898 c-4 -6 -3 -8 4 -4 5 3 12 1 14 -6 3 -8 6 -9 11 -1 4 6 0
13 -8 17 -8 3 -17 0 -21 -6z"/>
<path d="M4330 876 c0 -8 4 -17 9 -20 5 -4 7 3 4 14 -6 23 -13 26 -13 6z"/>
<path d="M4350 876 c0 -2 8 -10 18 -17 15 -13 16 -12 3 4 -13 16 -21 21 -21
13z"/>
<path d="M745 860 c-3 -6 1 -7 9 -4 18 7 21 14 7 14 -6 0 -13 -4 -16 -10z"/>
<path d="M4410 860 c0 -5 5 -10 11 -10 5 0 7 5 4 10 -3 6 -8 10 -11 10 -2 0
-4 -4 -4 -10z"/>
<path d="M4281 836 c-9 -11 -9 -16 0 -22 8 -5 9 -3 4 6 -6 10 -4 12 8 7 11 -4
14 -2 10 9 -6 17 -8 17 -22 0z"/>
<path d="M4370 820 c0 -5 5 -10 11 -10 5 0 7 5 4 10 -3 6 -8 10 -11 10 -2 0
-4 -4 -4 -10z"/>
<path d="M826 802 c-3 -5 1 -9 9 -9 8 0 12 4 9 9 -3 4 -7 8 -9 8 -2 0 -6 -4
-9 -8z"/>
<path d="M4255 799 c-4 -6 -5 -12 -2 -15 2 -3 7 2 10 11 7 17 1 20 -8 4z"/>
<path d="M4309 797 c6 -8 7 -18 3 -22 -4 -5 -1 -5 6 -1 10 6 10 11 1 22 -6 8
-14 14 -16 14 -3 0 0 -6 6 -13z"/>
<path d="M4400 800 c-9 -6 -10 -10 -3 -10 6 0 15 5 18 10 8 12 4 12 -15 0z"/>
<path d="M4207 760 c-15 -14 -16 -20 -5 -26 7 -4 10 -4 6 1 -4 4 0 14 10 21 9
7 15 14 12 17 -3 2 -13 -4 -23 -13z"/>
<path d="M835 760 c3 -5 8 -10 11 -10 2 0 4 5 4 10 0 6 -5 10 -11 10 -5 0 -7
-4 -4 -10z"/>
<path d="M4266 738 c3 -5 10 -6 15 -3 13 9 11 12 -6 12 -8 0 -12 -4 -9 -9z"/>
<path d="M936 722 c-3 -5 1 -9 9 -9 8 0 12 4 9 9 -3 4 -7 8 -9 8 -2 0 -6 -4
-9 -8z"/>
<path d="M4180 720 c8 -5 20 -10 25 -10 6 0 3 5 -5 10 -8 5 -19 10 -25 10 -5
0 -3 -5 5 -10z"/>
<path d="M4230 722 c0 -5 7 -9 15 -9 8 0 12 4 9 9 -3 4 -9 8 -15 8 -5 0 -9 -4
-9 -8z"/>
<path d="M4150 699 c0 -5 5 -7 10 -4 6 3 10 8 10 11 0 2 -4 4 -10 4 -5 0 -10
-5 -10 -11z"/>
<path d="M936 687 c3 -10 9 -15 12 -12 3 3 0 11 -7 18 -10 9 -11 8 -5 -6z"/>
<path d="M4169 683 c-13 -16 -12 -17 4 -4 16 13 21 21 13 21 -2 0 -10 -8 -17
-17z"/>
<path d="M4210 659 c0 -5 5 -7 10 -4 6 3 10 8 10 11 0 2 -4 4 -10 4 -5 0 -10
-5 -10 -11z"/>
<path d="M4155 650 c-4 -6 -10 -8 -15 -5 -5 3 -11 2 -14 -3 -2 -4 6 -8 18 -8
12 0 23 6 23 13 0 16 -4 16 -12 3z"/>
<path d="M4086 642 c-3 -5 1 -9 9 -9 8 0 15 4 15 9 0 4 -4 8 -9 8 -6 0 -12 -4
-15 -8z"/>
<path d="M1065 600 c10 -11 20 -20 23 -20 3 0 -3 9 -13 20 -10 11 -20 20 -23
20 -3 0 3 -9 13 -20z"/>
<path d="M4046 597 c3 -10 9 -15 12 -12 3 3 0 11 -7 18 -10 9 -11 8 -5 -6z"/>
<path d="M4130 599 c0 -5 5 -7 10 -4 6 3 10 8 10 11 0 2 -4 4 -10 4 -5 0 -10
-5 -10 -11z"/>
<path d="M3997 593 c-10 -10 -8 -23 4 -23 5 0 7 5 3 12 -5 8 -2 9 10 5 10 -4
15 -3 11 3 -7 12 -19 13 -28 3z"/>
<path d="M1030 559 c0 -5 5 -7 10 -4 6 3 10 8 10 11 0 2 -4 4 -10 4 -5 0 -10
-5 -10 -11z"/>
<path d="M4020 560 c-9 -6 -10 -10 -3 -10 6 0 15 5 18 10 8 12 4 12 -15 0z"/>
<path d="M3921 523 c7 -12 15 -20 18 -17 3 2 -3 12 -13 22 -17 16 -18 16 -5
-5z"/>
<path d="M4110 526 c0 -2 7 -7 16 -10 8 -3 12 -2 9 4 -6 10 -25 14 -25 6z"/>
<path d="M3875 500 c3 -5 8 -10 11 -10 2 0 4 5 4 10 0 6 -5 10 -11 10 -5 0 -7
-4 -4 -10z"/>
<path d="M3830 469 c0 -5 -5 -7 -12 -3 -7 4 -8 3 -4 -4 4 -6 13 -9 21 -6 8 4
12 10 9 15 -7 12 -14 11 -14 -2z"/>
<path d="M1215 460 c3 -5 8 -10 11 -10 2 0 4 5 4 10 0 6 -5 10 -11 10 -5 0 -7
-4 -4 -10z"/>
<path d="M3930 459 c0 -5 5 -7 10 -4 6 3 10 8 10 11 0 2 -4 4 -10 4 -5 0 -10
-5 -10 -11z"/>
<path d="M3893 425 c0 -8 4 -12 9 -9 5 3 6 10 3 15 -9 13 -12 11 -12 -6z"/>
<path d="M1353 405 c0 -8 4 -15 9 -15 4 0 8 4 8 9 0 6 -4 12 -8 15 -5 3 -9 -1
-9 -9z"/>
<path d="M3741 404 c0 -11 3 -14 6 -6 3 7 2 16 -1 19 -3 4 -6 -2 -5 -13z"/>
<path d="M1156 398 c3 -5 10 -6 15 -3 13 9 11 12 -6 12 -8 0 -12 -4 -9 -9z"/>
<path d="M1436 382 c-3 -5 1 -9 9 -9 8 0 12 4 9 9 -3 4 -7 8 -9 8 -2 0 -6 -4
-9 -8z"/>
<path d="M3855 381 c-3 -5 -2 -12 3 -15 5 -3 9 1 9 9 0 17 -3 19 -12 6z"/>
<path d="M1353 355 c0 -8 4 -12 9 -9 5 3 6 10 3 15 -9 13 -12 11 -12 -6z"/>
<path d="M3640 350 c6 -11 12 -20 14 -20 2 0 2 9 -1 20 -3 11 -9 20 -15 20 -5
0 -4 -9 2 -20z"/>
<path d="M3700 360 c-8 -5 -10 -10 -5 -10 6 0 17 5 25 10 8 5 11 10 5 10 -5 0
-17 -5 -25 -10z"/>
<path d="M1513 345 c0 -8 4 -15 9 -15 4 0 8 4 8 9 0 6 -4 12 -8 15 -5 3 -9 -1
-9 -9z"/>
<path d="M3735 340 c3 -5 8 -10 11 -10 2 0 4 5 4 10 0 6 -5 10 -11 10 -5 0 -7
-4 -4 -10z"/>
<path d="M1560 326 c0 -2 8 -10 18 -17 15 -13 16 -12 3 4 -13 16 -21 21 -21
13z"/>
<path d="M3610 318 c0 -6 3 -8 7 -5 3 4 13 1 22 -6 14 -11 14 -10 2 6 -15 20
-31 22 -31 5z"/>
<path d="M1516 301 c-3 -5 2 -15 12 -22 15 -12 16 -12 5 2 -7 9 -10 19 -6 22
3 4 4 7 0 7 -3 0 -8 -4 -11 -9z"/>
<path d="M3690 300 c0 -5 5 -10 11 -10 5 0 7 5 4 10 -3 6 -8 10 -11 10 -2 0
-4 -4 -4 -10z"/>
<path d="M1636 287 c3 -10 9 -15 12 -12 3 3 0 11 -7 18 -10 9 -11 8 -5 -6z"/>
<path d="M3460 286 c0 -2 7 -7 16 -10 8 -3 12 -2 9 4 -6 10 -25 14 -25 6z"/>
<path d="M3430 260 c0 -5 5 -10 10 -10 6 0 10 5 10 10 0 6 -4 10 -10 10 -5 0
-10 -4 -10 -10z"/>
<path d="M3509 257 c6 -8 7 -18 3 -22 -4 -5 -1 -5 6 -1 10 6 10 11 1 22 -6 8
-14 14 -16 14 -3 0 0 -6 6 -13z"/>
<path d="M3605 260 c-3 -6 1 -7 9 -4 18 7 21 14 7 14 -6 0 -13 -4 -16 -10z"/>
<path d="M1722 244 c10 -10 20 -16 22 -13 3 3 -5 11 -17 18 -21 13 -21 12 -5
-5z"/>
<path d="M3386 245 c-9 -26 -7 -32 5 -12 6 10 9 21 6 23 -2 3 -7 -2 -11 -11z"/>
<path d="M1784 230 c0 -13 4 -16 10 -10 7 7 7 13 0 20 -6 6 -10 3 -10 -10z"/>
<path d="M3330 240 c0 -5 5 -10 11 -10 5 0 7 5 4 10 -3 6 -8 10 -11 10 -2 0
-4 -4 -4 -10z"/>
<path d="M3479 233 c-13 -16 -12 -17 4 -4 9 7 17 15 17 17 0 8 -8 3 -21 -13z"/>
<path d="M3245 220 c-16 -6 -13 -8 13 -7 17 0 32 1 32 2 0 8 -28 11 -45 5z"/>
<path d="M3426 218 c3 -5 10 -6 15 -3 13 9 11 12 -6 12 -8 0 -12 -4 -9 -9z"/>
<path d="M1812 211 c-11 -7 -11 -9 0 -14 9 -3 15 1 15 9 0 8 -1 14 -1 14 -1 0
-7 -4 -14 -9z"/>
<path d="M3307 207 c-3 -8 0 -14 7 -14 7 0 13 6 13 14 0 17 -13 17 -20 0z"/>
<path d="M3589 203 c-13 -16 -12 -17 4 -4 16 13 21 21 13 21 -2 0 -10 -8 -17
-17z"/>
<path d="M3193 193 c0 -9 4 -10 14 -2 7 6 13 12 13 14 0 1 -6 2 -13 2 -8 0
-14 -6 -14 -14z"/>
<path d="M3360 200 c-9 -6 -10 -10 -3 -10 6 0 15 5 18 10 8 12 4 12 -15 0z"/>
<path d="M1916 182 c-3 -5 1 -9 9 -9 8 0 12 4 9 9 -3 4 -7 8 -9 8 -2 0 -6 -4
-9 -8z"/>
<path d="M3232 181 c2 -19 -4 -24 -12 -11 -7 12 -9 10 -7 -7 l1 -23 23 22 c27
25 27 25 9 25 -8 0 -15 -3 -14 -6z"/>
<path d="M1856 167 c3 -10 9 -15 12 -12 3 3 0 11 -7 18 -10 9 -11 8 -5 -6z"/>
<path d="M3121 164 c0 -11 3 -14 6 -6 3 7 2 16 -1 19 -3 4 -6 -2 -5 -13z"/>
<path d="M3394 166 c1 -8 5 -18 8 -22 4 -3 5 1 4 10 -1 8 -5 18 -8 22 -4 3 -5
-1 -4 -10z"/>
<path d="M2986 147 c-17 -12 -17 -14 1 -27 14 -11 16 -11 6 0 -10 11 -9 16 5
26 22 17 11 18 -12 1z"/>
<path d="M2028 143 c7 -3 16 -2 19 1 4 3 -2 6 -13 5 -11 0 -14 -3 -6 -6z"/>
<path d="M2068 143 c7 -3 16 -2 19 1 4 3 -2 6 -13 5 -11 0 -14 -3 -6 -6z"/>
<path d="M2196 142 c-3 -5 1 -9 9 -9 8 0 12 4 9 9 -3 4 -7 8 -9 8 -2 0 -6 -4
-9 -8z"/>
<path d="M2930 140 c0 -5 5 -10 11 -10 5 0 7 5 4 10 -3 6 -8 10 -11 10 -2 0
-4 -4 -4 -10z"/>
<path d="M3270 145 c0 -7 30 -13 34 -7 3 4 -4 9 -15 9 -10 1 -19 0 -19 -2z"/>
<path d="M2095 130 c-4 -6 -11 -7 -17 -4 -7 4 -8 2 -4 -5 6 -9 11 -9 22 0 14
11 18 19 10 19 -3 0 -8 -5 -11 -10z"/>
<path d="M2158 133 c7 -3 16 -2 19 1 4 3 -2 6 -13 5 -11 0 -14 -3 -6 -6z"/>
<path d="M2263 134 c4 -4 1 -14 -6 -23 -11 -14 -10 -15 8 -1 11 8 21 15 23 16
2 1 -5 5 -15 8 -9 4 -14 4 -10 0z"/>
<path d="M2853 121 c0 -11 5 -18 9 -15 4 3 5 11 1 19 -7 21 -12 19 -10 -4z"/>
<path d="M3030 129 c0 -5 5 -7 10 -4 6 3 10 8 10 11 0 2 -4 4 -10 4 -5 0 -10
-5 -10 -11z"/>
<path d="M2036 122 c-3 -5 1 -9 9 -9 8 0 12 4 9 9 -3 4 -7 8 -9 8 -2 0 -6 -4
-9 -8z"/>
<path d="M2370 121 c0 -6 4 -13 10 -16 6 -3 7 1 4 9 -7 18 -14 21 -14 7z"/>
<path d="M2696 117 c3 -10 9 -15 12 -12 3 3 0 11 -7 18 -10 9 -11 8 -5 -6z"/>
<path d="M3083 119 c9 -6 14 -15 11 -21 -4 -7 -2 -8 5 -4 14 9 -3 36 -23 36
-6 0 -3 -5 7 -11z"/>
<path d="M2596 111 c-3 -5 1 -11 9 -14 9 -4 12 -1 8 9 -6 16 -10 17 -17 5z"/>
<path d="M2956 107 c3 -10 9 -15 12 -12 3 3 0 11 -7 18 -10 9 -11 8 -5 -6z"/>
<path d="M2539 108 c-10 -33 6 -46 28 -24 4 4 1 6 -7 4 -8 -2 -14 3 -12 10 2
10 -6 19 -9 10z"/>
<path d="M2679 108 c-5 -18 -6 -38 -1 -34 7 8 12 36 6 36 -2 0 -4 -1 -5 -2z"/>
<path d="M2753 93 c0 -9 4 -10 14 -2 7 6 13 12 13 14 0 1 -6 2 -13 2 -8 0 -14
-6 -14 -14z"/>
<path d="M2880 95 c-7 -8 -17 -12 -23 -8 -6 4 -7 1 -3 -6 6 -9 13 -8 27 5 10
9 19 19 19 21 0 7 -8 2 -20 -12z"/>
<path d="M3055 100 c3 -5 8 -10 11 -10 2 0 4 5 4 10 0 6 -5 10 -11 10 -5 0 -7
-4 -4 -10z"/>
<path d="M2726 83 c-6 -14 -5 -15 5 -6 7 7 10 15 7 18 -3 3 -9 -2 -12 -12z"/>
<path d="M2936 87 c3 -10 9 -15 12 -12 3 3 0 11 -7 18 -10 9 -11 8 -5 -6z"/>
<path d="M2070 86 c0 -2 7 -7 16 -10 8 -3 12 -2 9 4 -6 10 -25 14 -25 6z"/>
<path d="M2435 71 c-3 -5 -2 -12 3 -15 5 -3 9 1 9 9 0 17 -3 19 -12 6z"/>
<path d="M2196 58 c3 -4 11 -5 19 -1 21 7 19 12 -4 10 -11 0 -18 -5 -15 -9z"/>
<path d="M2560 60 c-9 -6 -10 -10 -3 -10 6 0 15 5 18 10 8 12 4 12 -15 0z"/>
</g>
</svg>
